ffmpeg started on 2025-05-28 at 10:46:33
Report written to "D:\Convert\FFMetrics\reports\psnr_report-6.txt"
Log level: 32
Command line:
ffmpeg -hide_banner -nostdin -i "G:\\\xc0\xed\xe8\xec\xe5\\\xce\xed\xe3\xee\xe8\xed\xe3\xe8\\!_36_\xce\xf1\xe5\xed\xfc_2024\\JamClub\\MF \xcf\xf0\xe8\xe7\xf0\xe0\xea\\\xd2\xc2-2\\[JamClub] MF Ghost 2 - 01_HEVC.mkv" -i "G:\\\xc0\xed\xe8\xec\xe5\\\xce\xed\xe3\xee\xe8\xed\xe3\xe8\\!_36_\xce\xf1\xe5\xed\xfc_2024\\JamClub\\MF \xcf\xf0\xe8\xe7\xf0\xe0\xea\\\xd2\xc2-2\\[JamClub] MF Ghost 2 - 01.mp4" -lavfi "[0:v]settb=AVTB,setpts=PTS-STARTPTS,format=pix_fmts=yuv420p10,fps=24000/1001,scale=1920:1080:flags=bicubic[main];[1:v]settb=AVTB,setpts=PTS-STARTPTS,format=pix_fmts=yuv420p,fps=24000/1001,scale=1920:1080:flags=bicubic[ref];[main][ref]psnr=eof_action=endall:stats_file='D\\:/Convert/FFMetrics/logs/psnr_logfile-6.txt'" -f null -
Input #0, matroska,webm, from 'G:\Аниме\Онгоинги\!_36_Осень_2024\JamClub\MF Призрак\ТВ-2\[JamClub] MF Ghost 2 - 01_HEVC.mkv':
  Metadata:
    COMPATIBLE_BRANDS: isomiso2avc1mp41
    MAJOR_BRAND     : isom
    MINOR_VERSION   : 512
    ENCODER         : Lavf61.7.100
  Duration: 00:24:02.43, start: -0.001000, bitrate: 2139 kb/s
  Stream #0:0: Video: hevc (Main 10), yuv420p10le(tv, bt709, progressive), 1920x1080 [SAR 1:1 DAR 16:9], 23.98 fps, 23.98 tbr, 1k tbn (default)
      Metadata:
        HANDLER_NAME    : VideoHandler
        VENDOR_ID       : [0][0][0][0]
        ENCODER         : Lavc61.19.100 libx265
        BPS             : 1939520
        DURATION        : 00:24:02.315708333
        NUMBER_OF_FRAMES: 34581
        NUMBER_OF_BYTES : 349674981
        _STATISTICS_WRITING_APP: mkvpropedit v66.0.0 ('Josie') 64-bit
        _STATISTICS_WRITING_DATE_UTC: 2025-05-27 11:06:01
        _STATISTICS_TAGS: BPS DURATION NUMBER_OF_FRAMES NUMBER_OF_BYTES
  Stream #0:1(eng): Audio: aac (LC), 48000 Hz, stereo, fltp (default)
      Metadata:
        HANDLER_NAME    : SoundHandler
        VENDOR_ID       : [0][0][0][0]
        ENCODER         : Lavc61.19.100 aac
        BPS             : 195998
        DURATION        : 00:24:02.392000000
        NUMBER_OF_FRAMES: 67613
        NUMBER_OF_BYTES : 35338280
        _STATISTICS_WRITING_APP: mkvpropedit v66.0.0 ('Josie') 64-bit
        _STATISTICS_WRITING_DATE_UTC: 2025-05-27 11:06:01
        _STATISTICS_TAGS: BPS DURATION NUMBER_OF_FRAMES NUMBER_OF_BYTES
Input #1, mov,mp4,m4a,3gp,3g2,mj2, from 'G:\Аниме\Онгоинги\!_36_Осень_2024\JamClub\MF Призрак\ТВ-2\[JamClub] MF Ghost 2 - 01.mp4':
  Metadata:
    major_brand     : isom
    minor_version   : 512
    compatible_brands: isomiso2avc1mp41
    encoder         : Lavf60.16.100
  Duration: 00:24:02.41, start: 0.000000, bitrate: 4653 kb/s
  Stream #1:0[0x1](und): Video: h264 (High) (avc1 / 0x31637661), yuv420p(progressive), 1920x1080 [SAR 1:1 DAR 16:9], 4455 kb/s, 23.98 fps, 23.98 tbr, 90k tbn (default)
      Metadata:
        handler_name    : VideoHandler
        vendor_id       : [0][0][0][0]
  Stream #1:1[0x2](eng): Audio: aac (LC) (mp4a / 0x6134706D), 48000 Hz, stereo, fltp, 191 kb/s (default)
      Metadata:
        handler_name    : SoundHandler
        vendor_id       : [0][0][0][0]
Stream mapping:
  Stream #0:0 (hevc) -> settb:default
  Stream #1:0 (h264) -> settb:default
  psnr:default -> Stream #0:0 (wrapped_avframe)
  Stream #0:1 -> #0:1 (aac (native) -> pcm_s16le (native))
Output #0, null, to 'pipe:':
  Metadata:
    COMPATIBLE_BRANDS: isomiso2avc1mp41
    MAJOR_BRAND     : isom
    MINOR_VERSION   : 512
    encoder         : Lavf61.7.100
  Stream #0:0: Video: wrapped_avframe, yuv420p10le(tv, bt709, progressive), 1920x1080 [SAR 1:1 DAR 16:9], q=2-31, 200 kb/s, 23.98 fps, 23.98 tbn
      Metadata:
        encoder         : Lavc61.19.100 wrapped_avframe
  Stream #0:1(eng): Audio: pcm_s16le, 48000 Hz, stereo, s16, 1536 kb/s (default)
      Metadata:
        HANDLER_NAME    : SoundHandler
        VENDOR_ID       : [0][0][0][0]
        _STATISTICS_TAGS: BPS DURATION NUMBER_OF_FRAMES NUMBER_OF_BYTES
        BPS             : 195998
        DURATION        : 00:24:02.392000000
        NUMBER_OF_FRAMES: 67613
        NUMBER_OF_BYTES : 35338280
        _STATISTICS_WRITING_APP: mkvpropedit v66.0.0 ('Josie') 64-bit
        _STATISTICS_WRITING_DATE_UTC: 2025-05-27 11:06:01
        encoder         : Lavc61.19.100 pcm_s16le
frame=  105 fps=0.0 q=-0.0 size=N/A time=00:00:04.37 bitrate=N/A speed=8.65x    frame=  266 fps=258 q=-0.0 size=N/A time=00:00:11.09 bitrate=N/A speed=10.8x    frame=  455 fps=293 q=-0.0 size=N/A time=00:00:18.97 bitrate=N/A speed=12.2x    frame=  675 fps=328 q=-0.0 size=N/A time=00:00:28.15 bitrate=N/A speed=13.7x    frame=  939 fps=364 q=-0.0 size=N/A time=00:00:39.16 bitrate=N/A speed=15.2x    frame= 1121 fps=363 q=-0.0 size=N/A time=00:00:46.75 bitrate=N/A speed=15.1x    frame= 1343 fps=372 q=-0.0 size=N/A time=00:00:56.01 bitrate=N/A speed=15.5x    frame= 1607 fps=390 q=-0.0 size=N/A time=00:01:07.02 bitrate=N/A speed=16.3x    frame= 1867 fps=403 q=-0.0 size=N/A time=00:01:17.86 bitrate=N/A speed=16.8x    frame= 2112 fps=409 q=-0.0 size=N/A time=00:01:28.08 bitrate=N/A speed=17.1x    frame= 2285 fps=403 q=-0.0 size=N/A time=00:01:35.30 bitrate=N/A speed=16.8x    frame= 2473 fps=400 q=-0.0 size=N/A time=00:01:43.14 bitrate=N/A speed=16.7x    frame= 2619 fps=391 q=-0.0 size=N/A time=00:01:49.23 bitrate=N/A speed=16.3x    frame= 2767 fps=383 q=-0.0 size=N/A time=00:01:55.40 bitrate=N/A speed=  16x    frame= 2939 fps=380 q=-0.0 size=N/A time=00:02:02.58 bitrate=N/A speed=15.8x    frame= 3131 fps=380 q=-0.0 size=N/A time=00:02:10.58 bitrate=N/A speed=15.8x    frame= 3303 fps=377 q=-0.0 size=N/A time=00:02:17.76 bitrate=N/A speed=15.7x    frame= 3485 fps=376 q=-0.0 size=N/A time=00:02:25.35 bitrate=N/A speed=15.7x    frame= 3675 fps=375 q=-0.0 size=N/A time=00:02:33.27 bitrate=N/A speed=15.6x    frame= 3867 fps=375 q=-0.0 size=N/A time=00:02:41.28 bitrate=N/A speed=15.7x    frame= 4007 fps=370 q=-0.0 size=N/A time=00:02:47.12 bitrate=N/A speed=15.4x    frame= 4148 fps=366 q=-0.0 size=N/A time=00:02:53.00 bitrate=N/A speed=15.2x    frame= 4313 fps=364 q=-0.0 size=N/A time=00:02:59.88 bitrate=N/A speed=15.2x    frame= 4465 fps=361 q=-0.0 size=N/A time=00:03:06.22 bitrate=N/A speed=  15x    frame= 4595 fps=356 q=-0.0 size=N/A time=00:03:11.64 bitrate=N/A speed=14.9x    frame= 4733 fps=353 q=-0.0 size=N/A time=00:03:17.40 bitrate=N/A speed=14.7x    frame= 4950 fps=356 q=-0.0 size=N/A time=00:03:26.45 bitrate=N/A speed=14.8x    frame= 5130 fps=355 q=-0.0 size=N/A time=00:03:33.96 bitrate=N/A speed=14.8x    frame= 5307 fps=355 q=-0.0 size=N/A time=00:03:41.34 bitrate=N/A speed=14.8x    frame= 5556 fps=359 q=-0.0 size=N/A time=00:03:51.73 bitrate=N/A speed=  15x    frame= 5774 fps=361 q=-0.0 size=N/A time=00:04:00.82 bitrate=N/A speed=15.1x    frame= 5983 fps=363 q=-0.0 size=N/A time=00:04:09.54 bitrate=N/A speed=15.1x    frame= 6189 fps=364 q=-0.0 size=N/A time=00:04:18.13 bitrate=N/A speed=15.2x    frame= 6446 fps=368 q=-0.0 size=N/A time=00:04:28.85 bitrate=N/A speed=15.3x    frame= 6682 fps=370 q=-0.0 size=N/A time=00:04:38.69 bitrate=N/A speed=15.4x    frame= 6837 fps=368 q=-0.0 size=N/A time=00:04:45.15 bitrate=N/A speed=15.4x    frame= 7025 fps=368 q=-0.0 size=N/A time=00:04:53.00 bitrate=N/A speed=15.4x    frame= 7264 fps=371 q=-0.0 size=N/A time=00:05:02.96 bitrate=N/A speed=15.5x    frame= 7514 fps=374 q=-0.0 size=N/A time=00:05:13.39 bitrate=N/A speed=15.6x    frame= 7719 fps=374 q=-0.0 size=N/A time=00:05:21.94 bitrate=N/A speed=15.6x    frame= 7955 fps=376 q=-0.0 size=N/A time=00:05:31.78 bitrate=N/A speed=15.7x    frame= 8156 fps=377 q=-0.0 size=N/A time=00:05:40.17 bitrate=N/A speed=15.7x    frame= 8372 fps=378 q=-0.0 size=N/A time=00:05:49.18 bitrate=N/A speed=15.7x    frame= 8629 fps=380 q=-0.0 size=N/A time=00:05:59.90 bitrate=N/A speed=15.9x    frame= 8840 fps=381 q=-0.0 size=N/A time=00:06:08.70 bitrate=N/A speed=15.9x    frame= 9022 fps=381 q=-0.0 size=N/A time=00:06:16.29 bitrate=N/A speed=15.9x    frame= 9216 fps=380 q=-0.0 size=N/A time=00:06:24.38 bitrate=N/A speed=15.9x    frame= 9422 fps=381 q=-0.0 size=N/A time=00:06:32.97 bitrate=N/A speed=15.9x    frame= 9627 fps=381 q=-0.0 size=N/A time=00:06:41.52 bitrate=N/A speed=15.9x    frame= 9839 fps=382 q=-0.0 size=N/A time=00:06:50.36 bitrate=N/A speed=15.9x    frame=10113 fps=385 q=-0.0 size=N/A time=00:07:01.79 bitrate=N/A speed=  16x    frame=10318 fps=385 q=-0.0 size=N/A time=00:07:10.34 bitrate=N/A speed=  16x    frame=10577 fps=387 q=-0.0 size=N/A time=00:07:21.14 bitrate=N/A speed=16.1x    frame=10813 fps=388 q=-0.0 size=N/A time=00:07:30.99 bitrate=N/A speed=16.2x    frame=11058 fps=390 q=-0.0 size=N/A time=00:07:41.21 bitrate=N/A speed=16.3x    frame=11326 fps=392 q=-0.0 size=N/A time=00:07:52.38 bitrate=N/A speed=16.4x    frame=11582 fps=394 q=-0.0 size=N/A time=00:08:03.06 bitrate=N/A speed=16.4x    frame=11789 fps=394 q=-0.0 size=N/A time=00:08:11.69 bitrate=N/A speed=16.4x    frame=11926 fps=392 q=-0.0 size=N/A time=00:08:17.41 bitrate=N/A speed=16.4x    frame=12060 fps=390 q=-0.0 size=N/A time=00:08:23.00 bitrate=N/A speed=16.3x    frame=12240 fps=389 q=-0.0 size=N/A time=00:08:30.51 bitrate=N/A speed=16.2x    frame=12498 fps=391 q=-0.0 size=N/A time=00:08:41.27 bitrate=N/A speed=16.3x    frame=12743 fps=392 q=-0.0 size=N/A time=00:08:51.48 bitrate=N/A speed=16.4x    frame=12966 fps=393 q=-0.0 size=N/A time=00:09:00.79 bitrate=N/A speed=16.4x    frame=13177 fps=393 q=-0.0 size=N/A time=00:09:09.59 bitrate=N/A speed=16.4x    frame=13376 fps=393 q=-0.0 size=N/A time=00:09:17.89 bitrate=N/A speed=16.4x    frame=13608 fps=394 q=-0.0 size=N/A time=00:09:27.56 bitrate=N/A speed=16.4x    frame=13821 fps=394 q=-0.0 size=N/A time=00:09:36.45 bitrate=N/A speed=16.4x    frame=14031 fps=394 q=-0.0 size=N/A time=00:09:45.20 bitrate=N/A speed=16.4x    frame=14220 fps=394 q=-0.0 size=N/A time=00:09:53.09 bitrate=N/A speed=16.4x    frame=14405 fps=393 q=-0.0 size=N/A time=00:10:00.80 bitrate=N/A speed=16.4x    frame=14597 fps=393 q=-0.0 size=N/A time=00:10:08.81 bitrate=N/A speed=16.4x    frame=14849 fps=394 q=-0.0 size=N/A time=00:10:19.32 bitrate=N/A speed=16.5x    frame=15100 fps=396 q=-0.0 size=N/A time=00:10:29.79 bitrate=N/A speed=16.5x    frame=15352 fps=397 q=-0.0 size=N/A time=00:10:40.30 bitrate=N/A speed=16.6x    frame=15576 fps=397 q=-0.0 size=N/A time=00:10:49.64 bitrate=N/A speed=16.6x    frame=15809 fps=398 q=-0.0 size=N/A time=00:10:59.36 bitrate=N/A speed=16.6x    frame=16020 fps=398 q=-0.0 size=N/A time=00:11:08.16 bitrate=N/A speed=16.6x    frame=16224 fps=398 q=-0.0 size=N/A time=00:11:16.67 bitrate=N/A speed=16.6x    frame=16470 fps=399 q=-0.0 size=N/A time=00:11:26.93 bitrate=N/A speed=16.7x    frame=16719 fps=400 q=-0.0 size=N/A time=00:11:37.32 bitrate=N/A speed=16.7x    frame=16907 fps=400 q=-0.0 size=N/A time=00:11:45.16 bitrate=N/A speed=16.7x    frame=17164 fps=401 q=-0.0 size=N/A time=00:11:55.88 bitrate=N/A speed=16.7x    frame=17392 fps=402 q=-0.0 size=N/A time=00:12:05.39 bitrate=N/A speed=16.7x    frame=17568 fps=401 q=-0.0 size=N/A time=00:12:12.73 bitrate=N/A speed=16.7x    frame=17824 fps=402 q=-0.0 size=N/A time=00:12:23.40 bitrate=N/A speed=16.8x    frame=18012 fps=402 q=-0.0 size=N/A time=00:12:31.25 bitrate=N/A speed=16.8x    frame=18277 fps=403 q=-0.0 size=N/A time=00:12:42.30 bitrate=N/A speed=16.8x    frame=18499 fps=403 q=-0.0 size=N/A time=00:12:51.56 bitrate=N/A speed=16.8x    frame=18746 fps=404 q=-0.0 size=N/A time=00:13:01.86 bitrate=N/A speed=16.8x    frame=18994 fps=405 q=-0.0 size=N/A time=00:13:12.20 bitrate=N/A speed=16.9x    frame=19270 fps=406 q=-0.0 size=N/A time=00:13:23.71 bitrate=N/A speed=16.9x    frame=19539 fps=407 q=-0.0 size=N/A time=00:13:34.93 bitrate=N/A speed=  17x    frame=19780 fps=408 q=-0.0 size=N/A time=00:13:44.99 bitrate=N/A speed=  17x    frame=20009 fps=408 q=-0.0 size=N/A time=00:13:54.54 bitrate=N/A speed=  17x    frame=20209 fps=408 q=-0.0 size=N/A time=00:14:02.88 bitrate=N/A speed=  17x    frame=20477 fps=409 q=-0.0 size=N/A time=00:14:14.06 bitrate=N/A speed=17.1x    frame=20696 fps=410 q=-0.0 size=N/A time=00:14:23.19 bitrate=N/A speed=17.1x    frame=20910 fps=410 q=-0.0 size=N/A time=00:14:32.12 bitrate=N/A speed=17.1x    frame=21141 fps=410 q=-0.0 size=N/A time=00:14:41.75 bitrate=N/A speed=17.1x    frame=21308 fps=409 q=-0.0 size=N/A time=00:14:48.72 bitrate=N/A speed=17.1x    frame=21508 fps=409 q=-0.0 size=N/A time=00:14:57.06 bitrate=N/A speed=17.1x    frame=21696 fps=409 q=-0.0 size=N/A time=00:15:04.90 bitrate=N/A speed=  17x    frame=21963 fps=410 q=-0.0 size=N/A time=00:15:16.04 bitrate=N/A speed=17.1x    frame=22198 fps=410 q=-0.0 size=N/A time=00:15:25.84 bitrate=N/A speed=17.1x    frame=22446 fps=411 q=-0.0 size=N/A time=00:15:36.18 bitrate=N/A speed=17.1x    frame=22704 fps=411 q=-0.0 size=N/A time=00:15:46.94 bitrate=N/A speed=17.2x    frame=22975 fps=412 q=-0.0 size=N/A time=00:15:58.24 bitrate=N/A speed=17.2x    frame=23196 fps=413 q=-0.0 size=N/A time=00:16:07.50 bitrate=N/A speed=17.2x    frame=23478 fps=414 q=-0.0 size=N/A time=00:16:19.22 bitrate=N/A speed=17.3x    frame=23718 fps=414 q=-0.0 size=N/A time=00:16:29.23 bitrate=N/A speed=17.3x    frame=23969 fps=415 q=-0.0 size=N/A time=00:16:39.70 bitrate=N/A speed=17.3x    frame=24211 fps=415 q=-0.0 size=N/A time=00:16:49.80 bitrate=N/A speed=17.3x    frame=24461 fps=416 q=-0.0 size=N/A time=00:17:00.22 bitrate=N/A speed=17.4x    frame=24705 fps=417 q=-0.0 size=N/A time=00:17:10.40 bitrate=N/A speed=17.4x    frame=24933 fps=417 q=-0.0 size=N/A time=00:17:19.91 bitrate=N/A speed=17.4x    frame=25149 fps=417 q=-0.0 size=N/A time=00:17:28.92 bitrate=N/A speed=17.4x    frame=25365 fps=417 q=-0.0 size=N/A time=00:17:37.93 bitrate=N/A speed=17.4x    frame=25528 fps=416 q=-0.0 size=N/A time=00:17:44.73 bitrate=N/A speed=17.3x    frame=25716 fps=415 q=-0.0 size=N/A time=00:17:52.57 bitrate=N/A speed=17.3x    frame=25901 fps=415 q=-0.0 size=N/A time=00:18:00.28 bitrate=N/A speed=17.3x    frame=26063 fps=414 q=-0.0 size=N/A time=00:18:07.04 bitrate=N/A speed=17.3x    frame=26286 fps=414 q=-0.0 size=N/A time=00:18:16.34 bitrate=N/A speed=17.3x    frame=26554 fps=415 q=-0.0 size=N/A time=00:18:27.52 bitrate=N/A speed=17.3x    frame=26760 fps=415 q=-0.0 size=N/A time=00:18:36.11 bitrate=N/A speed=17.3x    frame=27005 fps=416 q=-0.0 size=N/A time=00:18:46.33 bitrate=N/A speed=17.3x    frame=27190 fps=415 q=-0.0 size=N/A time=00:18:54.04 bitrate=N/A speed=17.3x    frame=27342 fps=414 q=-0.0 size=N/A time=00:19:00.38 bitrate=N/A speed=17.3x    frame=27532 fps=414 q=-0.0 size=N/A time=00:19:08.31 bitrate=N/A speed=17.3x    frame=27716 fps=413 q=-0.0 size=N/A time=00:19:15.98 bitrate=N/A speed=17.2x    frame=27976 fps=414 q=-0.0 size=N/A time=00:19:26.83 bitrate=N/A speed=17.3x    frame=28200 fps=414 q=-0.0 size=N/A time=00:19:36.17 bitrate=N/A speed=17.3x    frame=28444 fps=415 q=-0.0 size=N/A time=00:19:46.35 bitrate=N/A speed=17.3x    frame=28700 fps=415 q=-0.0 size=N/A time=00:19:57.02 bitrate=N/A speed=17.3x    frame=28890 fps=415 q=-0.0 size=N/A time=00:20:04.95 bitrate=N/A speed=17.3x    frame=29106 fps=415 q=-0.0 size=N/A time=00:20:13.96 bitrate=N/A speed=17.3x    frame=29372 fps=416 q=-0.0 size=N/A time=00:20:25.05 bitrate=N/A speed=17.3x    frame=29611 fps=416 q=-0.0 size=N/A time=00:20:35.02 bitrate=N/A speed=17.4x    frame=29785 fps=415 q=-0.0 size=N/A time=00:20:42.28 bitrate=N/A speed=17.3x    frame=29959 fps=415 q=-0.0 size=N/A time=00:20:49.53 bitrate=N/A speed=17.3x    frame=30172 fps=415 q=-0.0 size=N/A time=00:20:58.42 bitrate=N/A speed=17.3x    frame=30362 fps=415 q=-0.0 size=N/A time=00:21:06.34 bitrate=N/A speed=17.3x    frame=30534 fps=414 q=-0.0 size=N/A time=00:21:13.52 bitrate=N/A speed=17.3x    frame=30740 fps=414 q=-0.0 size=N/A time=00:21:22.11 bitrate=N/A speed=17.3x    frame=30931 fps=414 q=-0.0 size=N/A time=00:21:30.08 bitrate=N/A speed=17.3x    frame=31091 fps=413 q=-0.0 size=N/A time=00:21:36.75 bitrate=N/A speed=17.2x    frame=31298 fps=413 q=-0.0 size=N/A time=00:21:45.38 bitrate=N/A speed=17.2x    frame=31482 fps=412 q=-0.0 size=N/A time=00:21:53.06 bitrate=N/A speed=17.2x    frame=31641 fps=412 q=-0.0 size=N/A time=00:21:59.69 bitrate=N/A speed=17.2x    frame=31805 fps=411 q=-0.0 size=N/A time=00:22:06.53 bitrate=N/A speed=17.1x    frame=32062 fps=412 q=-0.0 size=N/A time=00:22:17.25 bitrate=N/A speed=17.2x    frame=32258 fps=411 q=-0.0 size=N/A time=00:22:25.42 bitrate=N/A speed=17.2x    frame=32475 fps=412 q=-0.0 size=N/A time=00:22:34.51 bitrate=N/A speed=17.2x    frame=32723 fps=412 q=-0.0 size=N/A time=00:22:44.82 bitrate=N/A speed=17.2x    frame=32917 fps=412 q=-0.0 size=N/A time=00:22:52.91 bitrate=N/A speed=17.2x    frame=33093 fps=411 q=-0.0 size=N/A time=00:23:00.25 bitrate=N/A speed=17.2x    frame=33329 fps=412 q=-0.0 size=N/A time=00:23:10.09 bitrate=N/A speed=17.2x    frame=33528 fps=411 q=-0.0 size=N/A time=00:23:18.39 bitrate=N/A speed=17.2x    frame=33749 fps=412 q=-0.0 size=N/A time=00:23:27.61 bitrate=N/A speed=17.2x    frame=33951 fps=411 q=-0.0 size=N/A time=00:23:36.03 bitrate=N/A speed=17.2x    frame=34181 fps=412 q=-0.0 size=N/A time=00:23:45.63 bitrate=N/A speed=17.2x    frame=34410 fps=412 q=-0.0 size=N/A time=00:23:55.18 bitrate=N/A speed=17.2x    [Parsed_psnr_10 @ 000001920f1f8700] PSNR y:47.410978 u:50.141220 v:50.157748 average:48.147052 min:37.687346 max:inf
[out#0/null @ 00000192030e3f80] video:14859KiB audio:270452KiB subtitle:0KiB other streams:0KiB global headers:0KiB muxing overhead: unknown
frame=34581 fps=412 q=-0.0 Lsize=N/A time=00:24:02.31 bitrate=N/A speed=17.2x    
